# xmcd
#
# Track frame offsets:
#	150
#	13375
#	24487
#	42322
#	56177
#	72077
#	87217
#	98772
#	114687
#	130262
#	145195
#	159102
#	160390
#	163432
#	174920
#	178900
#	180387
#	183857
#	189082
#	189595
#	190020
#
# Disc length: 2537
#
# Revision: 1
# Processed by: cddbd v1.5.1PL0 Copyright (c) Steve Scherf et al.
# Submitted via: VisiTrax 2.9.5.180 - For more info visit www.synapsa.com
# Normalized: r0:DSETVAR1
#
DISCID=1b09e715
DTITLE=Various Artist - CDX May 1993
DYEAR=1993
DGENRE=
TTITLE0=Tracy Lawrence - Can't break it to my heart
TTITLE1=Shania Twain - Dance with the one that brought you
TTITLE2=Trisha Yearwood - Down on my knees
TTITLE3=Kiya Heartwood - Home
TTITLE4=Matthews, Wright and King - I got love
TTITLE5=Andy Childs - I wouldn't know
TTITLE6=Chris LeDoux - Under this old hat
TTITLE7=Remingtons - Wall around her heart
TTITLE8=Kelly Wiilis - Whatever way the wind blows
TTITLE9=Doug Stone - Why didn't I think of that
TTITLE10=James Younger - Sons of the 60's
TTITLE11=Jeff Foxworthy - I'm from Georgia
TTITLE12=Jeff Foxworthy - Words in the south
TTITLE13=Jeff Foxworthy - You might be a redneck
TTITLE14=Jeff Foxworthy - Babies and diapers
TTITLE15=Jeff Foxworthy - Three channels and the president
TTITLE16=Jeff Foxworthy - Single and broke
TTITLE17=Jeff Foxworthy - Sigourney Weaver
TTITLE18=Joe Diffie - Liner
TTITLE19=Joe Diffie - Liner
TTITLE20=Joe Diffie - Liner
EXTD=
EXTT0=
EXTT1=
EXTT2=
EXTT3=
EXTT4=
EXTT5=
EXTT6=
EXTT7=
EXTT8=
EXTT9=
EXTT10=
EXTT11=
EXTT12=
EXTT13=
EXTT14=
EXTT15=
EXTT16=
EXTT17=
EXTT18=
EXTT19=
EXTT20=
PLAYORDER=
